<svg xmlns="http://www.w3.org/2000/svg" viewBox="0 0 770.06 354.01"><defs><style>.cls-1{fill:none;}.cls-2{fill:#28348a;}.cls-3{fill:#e20613;}.cls-4{fill:#f9fafc;}.cls-5{fill:#fff;}</style></defs><g id="Capa_2" data-name="Capa 2"><path class="cls-1" d="M661.17,70.41H108.89a5.29,5.29,0,0,0-5.28,5.29V278.31a5.29,5.29,0,0,0,5.28,5.28H661.17a5.29,5.29,0,0,0,5.28-5.28V75.7A5.29,5.29,0,0,0,661.17,70.41Zm-4.71,87.3v106a11,11,0,0,1-11,11H124.63a11,11,0,0,1-11-11V90.32a11,11,0,0,1,11-11h520.8a11,11,0,0,1,11,11Z"/><path class="cls-2" d="M661.17,61.57H108.89A14.13,14.13,0,0,0,94.76,75.7V278.31a14.13,14.13,0,0,0,14.13,14.13H661.17a14.13,14.13,0,0,0,14.13-14.13V75.7A14.13,14.13,0,0,0,661.17,61.57Zm5.28,216.74a5.29,5.29,0,0,1-5.28,5.28H108.89a5.29,5.29,0,0,1-5.28-5.28V75.7a5.29,5.29,0,0,1,5.28-5.29H661.17a5.29,5.29,0,0,1,5.28,5.29Z"/><path class="cls-3" d="M347,122q-.84,2.39-.84,10.75,0,6.15.69,7.78a2.41,2.41,0,0,0,2.37,1.62q2.94,0,2.94-4.89V117.72Q347.83,119.63,347,122Z"/><path class="cls-3" d="M645.43,79.29H124.63a11,11,0,0,0-11,11v67.39H432.81c4.72-21.11,23.13-37.41,46-40.07,7.72-17.17,29.88-29.58,56-29.58s48.3,12.41,56,29.58c22.88,2.66,41.28,19,46,40.07h19.58V90.32A11,11,0,0,0,645.43,79.29ZM286,88a17.5,17.5,0,0,1,6.54-1.34c2.88,0,4.33,1,4.33,2.91,0,1.53-1,2.83-2.89,3.89a13.49,13.49,0,0,1-6.56,1.59q-4.76,0-4.75-3.18C282.66,90.2,283.77,88.92,286,88ZM159.1,149.38c-.18.3-.56.44-1.15.44H141c-.51,0-.77-.48-.77-1.45a8.34,8.34,0,0,1,.19-2.3,3,3,0,0,1,1.11-1.07,2.48,2.48,0,0,0,1.33-2.15,52,52,0,0,0-.83-6.23h-9.54l-.44,3.52a1.11,1.11,0,0,1-.09.35,7.31,7.31,0,0,0-.32,2c0,.92.6,1.7,1.79,2.34a2.47,2.47,0,0,1,1.18,1,5,5,0,0,1,.23,1.76,6,6,0,0,1-.17,1.9c-.12.21-.39.32-.82.32H123.74c-.56,0-.84-.58-.84-1.76a4.49,4.49,0,0,1,1.34-3.4,4.36,4.36,0,0,0,1.45-2.53l7.09-45a10.62,10.62,0,0,0,.19-1.8q0-1.19-1.65-2.1c-.51-.3-.77-1-.77-2a8.52,8.52,0,0,1,.23-2.6c.15-.33.56-.5,1.23-.5h14.61a1.89,1.89,0,0,1,1.87,1.26,25.37,25.37,0,0,1,1.07,5.51c.16,1.1.31,2.19.46,3.26l6.28,42a7.53,7.53,0,0,0,2.26,4.67,3.18,3.18,0,0,1,.65.67,4.09,4.09,0,0,1,.16,1.51A6,6,0,0,1,159.1,149.38Zm56.33-.93c0,.91-.43,1.37-1.27,1.37h-10.9q-2.3-1.8-2.3-5.58V108.19c0-1.76-.85-2.64-2.56-2.64a3.43,3.43,0,0,0-2.47.82,2.73,2.73,0,0,0-.86,2V143a2.56,2.56,0,0,0,1.15,2,1.6,1.6,0,0,1,.68,1.19v2.3c0,.91-.43,1.37-1.3,1.37H184.47a7.43,7.43,0,0,1-2.11-5.58V108.19c0-1.68-.69-2.53-2.06-2.53a7.69,7.69,0,0,0-2.91,1.11c-.13.08-.32.18-.58.31V143a2.54,2.54,0,0,0,1.19,1.95,1.77,1.77,0,0,1,.77,1.46v2.07a1.22,1.22,0,0,1-1.38,1.37H163c-.69,0-1-.3-1-.92v-2.52c0-.38.34-.93,1-1.65s1.11-1.32,1.11-1.76V104.36a2.09,2.09,0,0,0-1.34-2.1,1.47,1.47,0,0,1-.8-1.51v-2c0-.83.49-1.24,1.49-1.24h12c.89,0,1.33.41,1.33,1.23v3.86Q181.87,97,187,97t8.08,6q5.48-6,10.29-6a9.48,9.48,0,0,1,4,.87,6.72,6.72,0,0,1,3.08,3.24,11.28,11.28,0,0,1,1.19,5.15v36.24a3,3,0,0,0,.84,1.95,3.21,3.21,0,0,1,1,2.14Zm35-25.53H233.3v15.65a8.52,8.52,0,0,0,1.2,4.86,3.59,3.59,0,0,0,3.08,1.76,5.42,5.42,0,0,0,4.65-2.46,12.18,12.18,0,0,0,1.86-6.76,5.37,5.37,0,0,1,.44-2.75c.26-.31,1.19-.46,2.77-.46a5.08,5.08,0,0,1,2.62.42c.37.28.56,1,.56,2.1a15.94,15.94,0,0,1-3.83,10.49,12.54,12.54,0,0,1-10.14,4.59q-7.23,0-12.28-6.56t-5-19.77q0-13.2,4.66-20.11T236.09,97q6.51,0,10.45,5.81t3.94,16.53Zm24.83-11.17c-1.32,0-2.35-.78-3.06-2.34-.43-.89-.88-1.33-1.34-1.33-1.15,0-1.72,1.26-1.72,3.78v30.58a2.25,2.25,0,0,0,1.34,2.14,2.18,2.18,0,0,1,1.34,2.1v1.73a2,2,0,0,1-.21,1.16c-.14.17-.55.25-1.21.25H256q-1.5,0-1.5-1.41V146.3a1.45,1.45,0,0,1,.65-1.41,2.11,2.11,0,0,0,1.3-2V104.36a2,2,0,0,0-.91-1.87,3,3,0,0,1-1.15-.9,7.05,7.05,0,0,1-.15-2c0-.92.13-1.49.4-1.73a2.14,2.14,0,0,1,1.36-.34h10.33a1.1,1.1,0,0,1,1,.4,4.21,4.21,0,0,1,.27,1.93v7.85a19.75,19.75,0,0,0,1.11-3.21q1.45-5,2.85-6.24A4.5,4.5,0,0,1,274.66,97a3.7,3.7,0,0,1,3.46,2.18,11.45,11.45,0,0,1,1.17,5.47C279.29,109.39,278,111.75,275.31,111.75Zm23.5,37.65c-.13.28-.54.42-1.22.42H282.77a.77.77,0,0,1-.68-.48,7.75,7.75,0,0,1-.16-2.12c0-1.38.33-2.18,1-2.41a1.56,1.56,0,0,0,1.22-1.53V105.13c0-1.48-.55-2.37-1.64-2.68q-.69-.2-.69-1.11V98.81q0-1.26,1.53-1.26h12.21a1.13,1.13,0,0,1,1.3,1.26v44A3.74,3.74,0,0,0,297,144a1.22,1.22,0,0,0,.68.5,2.25,2.25,0,0,1,1.35,2.37A8.93,8.93,0,0,1,298.81,149.4Zm21.7-46.76a2.39,2.39,0,0,0-1.69-.69,2,2,0,0,0-1.57.81,2.73,2.73,0,0,0-.65,1.75v37.05a3.86,3.86,0,0,0,.79,2.39,2.58,2.58,0,0,0,2.2,1.05c1.27,0,2.26-.78,3-2.35a14.94,14.94,0,0,0,1.06-6.1l0-1.08c0-1.35.25-2.15.74-2.41a6.16,6.16,0,0,1,2.55-.38,3,3,0,0,1,2.14.57,3.52,3.52,0,0,1,.58,2.41,17.45,17.45,0,0,1-3.1,10.32,10.15,10.15,0,0,1-8.81,4.38q-6.69,0-11-6.73t-4.28-19.08a46.32,46.32,0,0,1,2.18-15.39q2.18-6.14,5.3-9.14a10.78,10.78,0,0,1,7.78-3,11.1,11.1,0,0,1,8.79,3.69,12.6,12.6,0,0,1,3.23,8.55,8.18,8.18,0,0,1-1.07,4.29,3.55,3.55,0,0,1-3.25,1.76,4,4,0,0,1-3.47-1.69,7.05,7.05,0,0,1-1.2-4.21,14.92,14.92,0,0,1,.23-2.48,15.47,15.47,0,0,0,.3-2.61A2.24,2.24,0,0,0,320.51,102.64Zm45.84,46a4,4,0,0,1-2.05,1.16,13.06,13.06,0,0,1-4.07.54,10.25,10.25,0,0,1-5-1.09,7.37,7.37,0,0,1-3.1-4.27,20.65,20.65,0,0,1-5.39,4.4,10,10,0,0,1-4.25,1,8.63,8.63,0,0,1-7.51-3.81q-2.67-3.8-2.67-12.44t2.49-12q2.49-3.34,9.72-6.18,4.59-1.76,7.61-3.21v-7.38c0-2-.82-3.06-2.48-3.06q-3.41,0-3.41,4.63a8.52,8.52,0,0,1-.59,3.71,4.81,4.81,0,0,1-2.68,1.89,12.42,12.42,0,0,1-4.46.79q-4.86,0-4.86-5.21a9.49,9.49,0,0,1,4.23-8q4.23-3.11,11-3.1A24.62,24.62,0,0,1,357,98.24a11.46,11.46,0,0,1,5.72,4.13,10.57,10.57,0,0,1,2.15,6.38v34.91c.05.18.43.56,1.15,1.15a2,2,0,0,1,.76,1.68A4.13,4.13,0,0,1,366.35,148.66Zm38.48.82a1.57,1.57,0,0,1-1.21.34H392.87a6.35,6.35,0,0,1-2.29-5.09V108.34c0-2-.82-3-2.45-3a5.44,5.44,0,0,0-3.49,1.68v35.7a2.38,2.38,0,0,0,1.34,2.15,1.75,1.75,0,0,1,.81,1.68v2c0,.87-.63,1.3-1.88,1.3H371.33a1.88,1.88,0,0,1-1.27-.28,2.54,2.54,0,0,1-.26-1.44v-1.42a1.72,1.72,0,0,1,.69-1.56,3.57,3.57,0,0,0,1.18-1.23,7.28,7.28,0,0,0,.27-2.53V103.94a2,2,0,0,0-1.3-2,1.23,1.23,0,0,1-.73-1.22v-2c0-.79.36-1.19,1.07-1.19h12.48c.53,0,.86.08,1,.23a1.6,1.6,0,0,1,.19,1v4Q389.2,97,395.05,97a7.46,7.46,0,0,1,6.12,2.58,10,10,0,0,1,2.11,6.49v36.65a2.15,2.15,0,0,0,1,1.88c.59.36.89,1.27.89,2.75A4.34,4.34,0,0,1,404.83,149.48Z"/><path class="cls-3" d="M235.9,101.87c-1.74,0-2.6,1.2-2.6,3.6v12.67h5.16V105.47Q238.46,101.87,235.9,101.87Z"/><polygon class="cls-3" points="133.08 132.22 141.59 132.22 137.41 102.31 133.08 132.22"/><path class="cls-2" d="M638.1,168.36a48.71,48.71,0,0,1-2.68,15.92,47.26,47.26,0,0,1,8.37,27c0,18.73-10.65,34.82-25.88,41.9-.72.33-1.45.61-2.19.9a201.36,201.36,0,0,1-29.17,9.77,207.43,207.43,0,0,1-24.69,4.7h0a13,13,0,0,0-9.37,6.17h93a11,11,0,0,0,11-11v-106H636.88A48.63,48.63,0,0,1,638.1,168.36Z"/><path class="cls-2" d="M201.07,190.22q-4.81,0-4.81,9.38v51.29q0,9.32,4.38,9.32,4.88,0,4.88-9.32v-53Q205.52,190.22,201.07,190.22Z"/><path class="cls-2" d="M321,190.22q-4.81,0-4.82,9.38v51.29q0,9.32,4.39,9.32,4.88,0,4.87-9.32v-53Q325.47,190.22,321,190.22Z"/><path class="cls-2" d="M508.55,268.68l-1.34-.18A207.11,207.11,0,0,1,481,263.28a204,204,0,0,1-27-9.21l-2.18-.91c-15.23-7.08-25.89-23.17-25.89-41.9a47.26,47.26,0,0,1,8.38-27,48.16,48.16,0,0,1-1.47-26.57H113.6v106a11,11,0,0,0,11,11H517.25A13,13,0,0,0,508.55,268.68ZM156.09,261q5.19,0,5.8-11.54c.13-2.22.56-3.77,1.3-4.63s2.26-1.3,4.57-1.3a5.28,5.28,0,0,1,3.61,1c.67.64,1,1.88,1,3.73a21,21,0,0,1-5.3,14.66,17.14,17.14,0,0,1-13.21,5.83,20.31,20.31,0,0,1-13.46-4.87q-5.79-4.87-10-16.82t-4.22-30.58q0-17.59,3.55-28.11T138.78,172a17.39,17.39,0,0,1,12.87-5.75,12.68,12.68,0,0,1,7.71,2.41,3.8,3.8,0,0,0,1.85.86c.5,0,1.2-.57,2.1-1.72s1.5-1.55,2.16-1.55h3.21a1.89,1.89,0,0,1,1.67.83c.37.56.63,2.05.8,4.48l1.42,19.87c0,.42.06.81.06,1.18a4.73,4.73,0,0,1-.74,3c-.49.58-1.48.86-3,.86-1.81,0-3.07-.47-3.77-1.42s-1.38-3.18-2-6.72q-2.53-13.45-7.22-13.46c-2.6,0-3.89,3.24-3.89,9.69V254C152,258.65,153.37,261,156.09,261Zm64.24-3.86q-7.91,11.32-19.69,11.33a20.87,20.87,0,0,1-14.13-5.19,33.3,33.3,0,0,1-9.23-13.82Q174,240.77,174,225.77q0-21.42,7.44-32.4t19.59-11q11.61,0,19.38,10.4t7.78,30.89Q228.23,245.77,220.33,257.09Zm40.42-67.36c0,1.31-.72,2-2.16,2h-3.83v63.94a4.85,4.85,0,0,0,2.9,4.69,3.54,3.54,0,0,1,1.85,1.67,10,10,0,0,1,.44,3.58,3.72,3.72,0,0,1-.22,1.79,3.37,3.37,0,0,1-1.51.18H238.71q-4.44-3.94-4.44-11.91V191.7h-2.41a2.17,2.17,0,0,1-1.32-.25c-.19-.16-.28-.61-.28-1.35v-4.45a2.93,2.93,0,0,1,.28-1.6c.18-.25.73-.43,1.63-.56q4.44-.68,9-4.94a16.64,16.64,0,0,0,5.37-9.13,4.13,4.13,0,0,1,.77-2.13,3,3,0,0,1,1.88-.4h4c1.07,0,1.6.72,1.6,2.16v14.2h3.83c1.44,0,2.16.67,2.16,2Zm31.22,0c0,1.31-.72,2-2.16,2H286v63.94a4.85,4.85,0,0,0,2.9,4.69,3.54,3.54,0,0,1,1.85,1.67,10,10,0,0,1,.44,3.58,3.72,3.72,0,0,1-.22,1.79,3.37,3.37,0,0,1-1.51.18H269.93q-4.44-3.94-4.44-11.91V191.7h-2.41a2.17,2.17,0,0,1-1.32-.25c-.19-.16-.28-.61-.28-1.35v-4.45a2.93,2.93,0,0,1,.28-1.6c.18-.25.73-.43,1.63-.56q4.44-.68,8.95-4.94a16.64,16.64,0,0,0,5.37-9.13,4.23,4.23,0,0,1,.77-2.13,3.06,3.06,0,0,1,1.89-.4h4c1.07,0,1.6.72,1.6,2.16v14.2h3.83c1.44,0,2.16.67,2.16,2Zm48.32,67.36q-7.91,11.32-19.69,11.33a20.9,20.9,0,0,1-14.14-5.19,33.39,33.39,0,0,1-9.23-13.82Q294,240.77,294,225.77q0-21.42,7.43-32.4t19.6-11q11.6,0,19.38,10.4t7.78,30.89Q348.19,245.77,340.29,257.09ZM407.46,267a2.53,2.53,0,0,1-1.95.55H388.17a10.25,10.25,0,0,1-3.7-8.21V200.65q0-4.82-4-4.81-2.59,0-5.62,2.71v57.59a3.81,3.81,0,0,0,2.16,3.45,2.86,2.86,0,0,1,1.3,2.72v3.14q0,2.1-3,2.1H353.42a2.94,2.94,0,0,1-2-.46,3.84,3.84,0,0,1-.44-2.31v-2.29a2.82,2.82,0,0,1,1.11-2.53,5.71,5.71,0,0,0,1.92-2,12.13,12.13,0,0,0,.43-4.08V193.55a3.27,3.27,0,0,0-2.1-3.14,2,2,0,0,1-1.17-2v-3.27c0-1.27.57-1.91,1.73-1.91H373c.86,0,1.39.12,1.6.37a2.56,2.56,0,0,1,.31,1.54v6.48q7.35-9.25,16.79-9.26,6.45,0,9.86,4.17A16,16,0,0,1,405,197v59.13a3.43,3.43,0,0,0,1.54,3c.95.58,1.42,2.06,1.42,4.44C407.92,265.5,407.77,266.63,407.46,267Z"/><polygon class="cls-2" points="517.25 274.72 532.39 274.72 532.39 274.71 517.25 274.72"/><path class="cls-4" d="M158.56,144.81a7.53,7.53,0,0,1-2.26-4.67l-6.28-42c-.15-1.07-.3-2.16-.46-3.26a25.37,25.37,0,0,0-1.07-5.51,1.89,1.89,0,0,0-1.87-1.26H132c-.67,0-1.08.17-1.23.5a8.52,8.52,0,0,0-.23,2.6c0,1,.26,1.73.77,2q1.65.91,1.65,2.1a10.62,10.62,0,0,1-.19,1.8l-7.09,45a4.36,4.36,0,0,1-1.45,2.53,4.49,4.49,0,0,0-1.34,3.4c0,1.18.28,1.76.84,1.76h10.07c.43,0,.7-.11.82-.32a6,6,0,0,0,.17-1.9,5,5,0,0,0-.23-1.76,2.47,2.47,0,0,0-1.18-1c-1.19-.64-1.79-1.42-1.79-2.34a7.31,7.31,0,0,1,.32-2,1.11,1.11,0,0,0,.09-.35l.44-3.52H142a52,52,0,0,1,.83,6.23,2.48,2.48,0,0,1-1.33,2.15,3,3,0,0,0-1.11,1.07,8.34,8.34,0,0,0-.19,2.3c0,1,.26,1.45.77,1.45h17c.59,0,1-.14,1.15-.44a6,6,0,0,0,.27-2.39,4.09,4.09,0,0,0-.16-1.51A3.18,3.18,0,0,0,158.56,144.81Zm-25.48-12.59,4.33-29.91,4.18,29.91Z"/><path class="cls-4" d="M213.63,142.52V106.28a11.28,11.28,0,0,0-1.19-5.15,6.72,6.72,0,0,0-3.08-3.24,9.48,9.48,0,0,0-4-.87q-4.81,0-10.29,6-2.91-6-8.08-6t-10.18,5.62V98.78c0-.82-.44-1.23-1.33-1.23h-12c-1,0-1.49.41-1.49,1.24v2a1.47,1.47,0,0,0,.8,1.51,2.09,2.09,0,0,1,1.34,2.1V143c0,.44-.37,1-1.11,1.76s-1,1.27-1,1.65v2.52c0,.62.34.92,1,.92h14.39a1.22,1.22,0,0,0,1.38-1.37v-2.07a1.77,1.77,0,0,0-.77-1.46,2.54,2.54,0,0,1-1.19-1.95V107.08c.26-.13.45-.23.58-.31a7.69,7.69,0,0,1,2.91-1.11c1.37,0,2.06.85,2.06,2.53v36.05a7.43,7.43,0,0,0,2.11,5.58H195.6c.87,0,1.3-.46,1.3-1.37v-2.3a1.6,1.6,0,0,0-.68-1.19,2.56,2.56,0,0,1-1.15-2V108.42a2.73,2.73,0,0,1,.86-2,3.43,3.43,0,0,1,2.47-.82c1.71,0,2.56.88,2.56,2.64v36.05q0,3.78,2.3,5.58h10.9c.84,0,1.27-.46,1.27-1.37v-1.84a3.21,3.21,0,0,0-1-2.14A3,3,0,0,1,213.63,142.52Z"/><path class="cls-4" d="M236.09,97q-7.58,0-12.25,6.9T219.18,124q0,13.2,5,19.77t12.28,6.56a12.54,12.54,0,0,0,10.14-4.59,15.94,15.94,0,0,0,3.83-10.49c0-1.12-.19-1.82-.56-2.1a5.08,5.08,0,0,0-2.62-.42c-1.58,0-2.51.15-2.77.46a5.37,5.37,0,0,0-.44,2.75,12.18,12.18,0,0,1-1.86,6.76,5.42,5.42,0,0,1-4.65,2.46,3.59,3.59,0,0,1-3.08-1.76,8.52,8.52,0,0,1-1.2-4.86V122.92h17.18v-3.56q0-10.71-3.94-16.53T236.09,97Zm2.37,21.12H233.3V105.47c0-2.4.86-3.6,2.6-3.6s2.56,1.2,2.56,3.6Z"/><path class="cls-4" d="M274.66,97a4.5,4.5,0,0,0-3.08,1.26q-1.4,1.26-2.85,6.24a19.75,19.75,0,0,1-1.11,3.21V99.88a4.21,4.21,0,0,0-.27-1.93,1.1,1.1,0,0,0-1-.4H256a2.14,2.14,0,0,0-1.36.34c-.27.24-.4.81-.4,1.73a7.05,7.05,0,0,0,.15,2,3,3,0,0,0,1.15.9,2,2,0,0,1,.91,1.87V142.9a2.11,2.11,0,0,1-1.3,2,1.45,1.45,0,0,0-.65,1.41v2.11q0,1.41,1.5,1.41h14.42c.66,0,1.07-.08,1.21-.25a2,2,0,0,0,.21-1.16v-1.73a2.18,2.18,0,0,0-1.34-2.1,2.25,2.25,0,0,1-1.34-2.14V111.86c0-2.52.57-3.78,1.72-3.78.46,0,.91.44,1.34,1.33.71,1.56,1.74,2.34,3.06,2.34,2.66,0,4-2.36,4-7.08a11.45,11.45,0,0,0-1.17-5.47A3.7,3.7,0,0,0,274.66,97Z"/><path class="cls-4" d="M297.65,144.51a1.22,1.22,0,0,1-.68-.5,3.74,3.74,0,0,1-.11-1.19v-44a1.13,1.13,0,0,0-1.3-1.26H283.35q-1.53,0-1.53,1.26v2.53q0,.91.69,1.11c1.09.31,1.64,1.2,1.64,2.68v38.15a1.56,1.56,0,0,1-1.22,1.53c-.67.23-1,1-1,2.41a7.75,7.75,0,0,0,.16,2.12.77.77,0,0,0,.68.48h14.82c.68,0,1.09-.14,1.22-.42a8.93,8.93,0,0,0,.19-2.52A2.25,2.25,0,0,0,297.65,144.51Z"/><path class="cls-4" d="M287.41,95.07A13.49,13.49,0,0,0,294,93.48c1.92-1.06,2.89-2.36,2.89-3.89,0-1.94-1.45-2.91-4.33-2.91A17.5,17.5,0,0,0,286,88c-2.22.9-3.33,2.18-3.33,3.87Q282.66,95.07,287.41,95.07Z"/><path class="cls-4" d="M320.7,109.41a7.05,7.05,0,0,0,1.2,4.21,4,4,0,0,0,3.47,1.69,3.55,3.55,0,0,0,3.25-1.76,8.18,8.18,0,0,0,1.07-4.29,12.6,12.6,0,0,0-3.23-8.55A11.1,11.1,0,0,0,317.67,97a10.78,10.78,0,0,0-7.78,3q-3.12,3-5.3,9.14a46.32,46.32,0,0,0-2.18,15.39q0,12.35,4.28,19.08t11,6.73a10.15,10.15,0,0,0,8.81-4.38,17.45,17.45,0,0,0,3.1-10.32,3.52,3.52,0,0,0-.58-2.41,3,3,0,0,0-2.14-.57,6.16,6.16,0,0,0-2.55.38c-.49.26-.74,1.06-.74,2.41l0,1.08a14.94,14.94,0,0,1-1.06,6.1c-.7,1.57-1.69,2.35-3,2.35a2.58,2.58,0,0,1-2.2-1.05,3.86,3.86,0,0,1-.79-2.39v-37a2.73,2.73,0,0,1,.65-1.75,2,2,0,0,1,1.57-.81,2.39,2.39,0,0,1,1.69.69,2.24,2.24,0,0,1,.72,1.68,15.47,15.47,0,0,1-.3,2.61A14.92,14.92,0,0,0,320.7,109.41Z"/><path class="cls-4" d="M364.86,143.66V108.75a10.57,10.57,0,0,0-2.15-6.38A11.46,11.46,0,0,0,357,98.24,24.62,24.62,0,0,0,348.94,97q-6.81,0-11,3.1a9.49,9.49,0,0,0-4.23,8q0,5.2,4.86,5.21a12.42,12.42,0,0,0,4.46-.79,4.81,4.81,0,0,0,2.68-1.89,8.52,8.52,0,0,0,.59-3.71q0-4.64,3.41-4.63c1.66,0,2.48,1,2.48,3.06v7.38q-3,1.45-7.61,3.21-7.23,2.83-9.72,6.18t-2.49,12q0,8.64,2.67,12.44a8.63,8.63,0,0,0,7.51,3.81,10,10,0,0,0,4.25-1,20.65,20.65,0,0,0,5.39-4.4,7.37,7.37,0,0,0,3.1,4.27,10.25,10.25,0,0,0,5,1.09,13.06,13.06,0,0,0,4.07-.54,4,4,0,0,0,2.05-1.16,4.13,4.13,0,0,0,.42-2.17,2,2,0,0,0-.76-1.68C365.29,144.22,364.91,143.84,364.86,143.66Zm-12.71-6.38q0,4.89-2.94,4.89a2.41,2.41,0,0,1-2.37-1.62q-.69-1.63-.69-7.78,0-8.37.84-10.75t5.16-4.3Z"/><path class="cls-4" d="M404.23,144.62a2.15,2.15,0,0,1-1-1.88V106.09a10,10,0,0,0-2.11-6.49A7.46,7.46,0,0,0,395.05,97q-5.85,0-10.41,5.74v-4a1.6,1.6,0,0,0-.19-1c-.13-.15-.46-.23-1-.23H371c-.71,0-1.07.4-1.07,1.19v2a1.23,1.23,0,0,0,.73,1.22,2,2,0,0,1,1.3,2v37.42a7.28,7.28,0,0,1-.27,2.53,3.57,3.57,0,0,1-1.18,1.23,1.72,1.72,0,0,0-.69,1.56v1.42a2.54,2.54,0,0,0,.26,1.44,1.88,1.88,0,0,0,1.27.28h13.58c1.25,0,1.88-.43,1.88-1.3v-2a1.75,1.75,0,0,0-.81-1.68,2.38,2.38,0,0,1-1.34-2.15V107a5.44,5.44,0,0,1,3.49-1.68c1.63,0,2.45,1,2.45,3v36.39a6.35,6.35,0,0,0,2.29,5.09h10.75a1.57,1.57,0,0,0,1.21-.34,4.34,4.34,0,0,0,.29-2.11C405.12,145.89,404.82,145,404.23,144.62Z"/><path class="cls-4" d="M155.91,174.91q4.68,0,7.22,13.46,1,5.31,2,6.72c.7.95,2,1.42,3.77,1.42,1.48,0,2.47-.28,3-.86a4.73,4.73,0,0,0,.74-3c0-.37,0-.76-.06-1.18l-1.42-19.87c-.17-2.43-.43-3.92-.8-4.48a1.89,1.89,0,0,0-1.67-.83h-3.21c-.66,0-1.38.52-2.16,1.55s-1.6,1.72-2.1,1.72a3.8,3.8,0,0,1-1.85-.86,12.68,12.68,0,0,0-7.71-2.41A17.39,17.39,0,0,0,138.78,172q-5.53,5.73-9.07,16.26t-3.55,28.11q0,18.65,4.22,30.58t10,16.82a20.31,20.31,0,0,0,13.46,4.87,17.14,17.14,0,0,0,13.21-5.83,21,21,0,0,0,5.3-14.66c0-1.85-.34-3.09-1-3.73a5.28,5.28,0,0,0-3.61-1c-2.31,0-3.83.43-4.57,1.3s-1.17,2.41-1.3,4.63q-.62,11.54-5.8,11.54c-2.72,0-4.07-2.3-4.07-6.91V184.6C152,178.15,153.31,174.91,155.91,174.91Z"/><path class="cls-4" d="M201.07,182.38q-12.15,0-19.59,11T174,225.77q0,15,3.24,23.64a33.3,33.3,0,0,0,9.23,13.82,20.87,20.87,0,0,0,14.13,5.19q11.79,0,19.69-11.33t7.9-33.42q0-20.49-7.78-30.89T201.07,182.38Zm4.45,68.51q0,9.32-4.88,9.32-4.38,0-4.38-9.32V199.6q0-9.37,4.81-9.38,4.45,0,4.45,7.65Z"/><path class="cls-4" d="M258.59,183.25h-3.83v-14.2c0-1.44-.53-2.16-1.6-2.16h-4a3,3,0,0,0-1.88.4,4.13,4.13,0,0,0-.77,2.13,16.64,16.64,0,0,1-5.37,9.13q-4.5,4.26-9,4.94c-.9.13-1.45.31-1.63.56a2.93,2.93,0,0,0-.28,1.6v4.45c0,.74.09,1.19.28,1.35a2.17,2.17,0,0,0,1.32.25h2.41v63.94q0,8,4.44,11.91h19.51a3.37,3.37,0,0,0,1.51-.18,3.72,3.72,0,0,0,.22-1.79,10,10,0,0,0-.44-3.58,3.54,3.54,0,0,0-1.85-1.67,4.85,4.85,0,0,1-2.9-4.69V191.7h3.83c1.44,0,2.16-.66,2.16-2v-4.45C260.75,183.92,260,183.25,258.59,183.25Z"/><path class="cls-4" d="M289.81,183.25H286v-14.2c0-1.44-.53-2.16-1.6-2.16h-4a3.06,3.06,0,0,0-1.89.4,4.23,4.23,0,0,0-.77,2.13,16.64,16.64,0,0,1-5.37,9.13q-4.5,4.26-8.95,4.94c-.9.13-1.45.31-1.63.56a2.93,2.93,0,0,0-.28,1.6v4.45c0,.74.09,1.19.28,1.35a2.17,2.17,0,0,0,1.32.25h2.41v63.94q0,8,4.44,11.91h19.51a3.37,3.37,0,0,0,1.51-.18,3.72,3.72,0,0,0,.22-1.79,10,10,0,0,0-.44-3.58,3.54,3.54,0,0,0-1.85-1.67,4.85,4.85,0,0,1-2.9-4.69V191.7h3.83c1.44,0,2.16-.66,2.16-2v-4.45C292,183.92,291.25,183.25,289.81,183.25Z"/><path class="cls-4" d="M321,182.38q-12.16,0-19.6,11T294,225.77q0,15,3.23,23.64a33.39,33.39,0,0,0,9.23,13.82,20.9,20.9,0,0,0,14.14,5.19q11.79,0,19.69-11.33t7.9-33.42q0-20.49-7.78-30.89T321,182.38Zm4.44,68.51q0,9.32-4.87,9.32-4.39,0-4.39-9.32V199.6q0-9.37,4.82-9.38,4.44,0,4.44,7.65Z"/><path class="cls-4" d="M406.5,259.16a3.43,3.43,0,0,1-1.54-3V197a16,16,0,0,0-3.41-10.46q-3.41-4.17-9.86-4.17-9.45,0-16.79,9.26v-6.48a2.56,2.56,0,0,0-.31-1.54c-.21-.25-.74-.37-1.6-.37H352.87c-1.16,0-1.73.64-1.73,1.91v3.27a2,2,0,0,0,1.17,2,3.27,3.27,0,0,1,2.1,3.14v60.36A12.13,12.13,0,0,1,354,258a5.71,5.71,0,0,1-1.92,2,2.82,2.82,0,0,0-1.11,2.53v2.29a3.84,3.84,0,0,0,.44,2.31,2.94,2.94,0,0,0,2,.46h21.91q3,0,3-2.1v-3.14a2.86,2.86,0,0,0-1.3-2.72,3.81,3.81,0,0,1-2.16-3.45V198.55q3-2.72,5.62-2.71,3.94,0,4,4.81v58.69a10.25,10.25,0,0,0,3.7,8.21h17.34a2.53,2.53,0,0,0,1.95-.55c.31-.37.46-1.5.46-3.4C407.92,261.22,407.45,259.74,406.5,259.16Z"/><path class="cls-5" d="M635.42,184.28a48,48,0,0,0,1.46-26.57c-4.72-21.11-23.12-37.41-46-40.07-7.73-17.17-29.89-29.58-56-29.58s-48.31,12.41-56,29.58c-22.88,2.66-41.29,19-46,40.07a48.16,48.16,0,0,0,1.47,26.57,47.26,47.26,0,0,0-8.38,27c0,18.73,10.66,34.82,25.89,41.9l2.18.91a204,204,0,0,0,27,9.21,207.11,207.11,0,0,0,26.26,5.22l1.34.18a13,13,0,0,1,8.7,6h15.14c0-.08,2.22-23.09-27.5-27.5-28.16-4.18-36.3-9.24-45.32-30.58-6.75-16-17.38-21.34-17.38-21.34s24.64-.88,42.46,22.66,24,26.18,31.68,26,8.36-2.64,18.26-2.64h.52c9.9,0,10.56,2.42,18.26,2.64s13.86-2.42,31.68-26,42.46-22.66,42.46-22.66-10.63,5.37-17.38,21.34c-9,21.34-17.16,26.4-45.32,30.58-28.8,4.27-27.62,26-27.51,27.42v.07h15.14a13,13,0,0,1,9.37-6.17h0a207.43,207.43,0,0,0,24.69-4.7,201.36,201.36,0,0,0,29.17-9.77c.74-.29,1.47-.57,2.19-.9,15.23-7.08,25.88-23.17,25.88-41.9A47.26,47.26,0,0,0,635.42,184.28Z"/><polygon class="cls-2" points="532.39 274.71 532.39 274.72 537.31 274.72 537.31 274.71 532.39 274.71"/><path class="cls-2" d="M564.81,247.22C593,243,601.11,238,610.13,216.64c6.75-16,17.38-21.34,17.38-21.34s-24.64-.88-42.46,22.66-24,26.18-31.68,26-8.36-2.64-18.26-2.64h-.52c-9.9,0-10.56,2.42-18.26,2.64s-13.86-2.42-31.68-26-42.46-22.66-42.46-22.66,10.63,5.37,17.38,21.34c9,21.34,17.16,26.4,45.32,30.58,29.72,4.41,27.51,27.42,27.5,27.49h4.92v-.07C537.19,273.23,536,251.49,564.81,247.22Z"/><rect class="cls-1" width="770.06" height="354.01"/><path class="cls-2" d="M700.37,70.41a12.19,12.19,0,1,1,12.19-12.19A12.21,12.21,0,0,1,700.37,70.41Zm0-22.12a9.93,9.93,0,1,0,9.93,9.93A9.94,9.94,0,0,0,700.37,48.29Z"/><path class="cls-2" d="M703.36,64.25l-2.53-3.65H698v3.65h-3V51.14h5.67a7.44,7.44,0,0,1,3,.58,4.37,4.37,0,0,1,2.67,4.18,4.3,4.3,0,0,1-2.7,4.14l2.94,4.21Zm-.77-10a3.15,3.15,0,0,0-2.08-.59H698v4.57h2.47a3.15,3.15,0,0,0,2.08-.6,2.07,2.07,0,0,0,.71-1.69A2,2,0,0,0,702.59,54.21Z"/></g></svg>