<?xml version="1.0" encoding="utf-8"?>
<!-- Generator: Adobe Illustrator 25.3.1, SVG Export Plug-In . SVG Version: 6.00 Build 0)  -->
<svg version="1.1" id="Layer_1" xmlns="http://www.w3.org/2000/svg" xmlns:xlink="http://www.w3.org/1999/xlink" x="0px" y="0px"
	 viewBox="0 0 145.1 71" style="enable-background:new 0 0 145.1 71;" xml:space="preserve">
<style type="text/css">
	.st0{fill:#FFFFFF;}
	.st1{fill:#DA001F;}
	.st2{fill:#00327B;}
</style>
<rect class="st0" width="145.1" height="71"/>
<g id="Group_624">
	<path id="Path_1282" class="st1" d="M4.8,0.9h28.1c1.6,0,2.9,1.3,2.9,2.9c0,0,0,0,0,0l0,0V32c0,1.6-1.3,2.9-2.9,2.9l0,0H4.8
		c-1.6,0-2.9-1.3-2.9-2.9l0,0V3.8C1.9,2.2,3.2,0.9,4.8,0.9L4.8,0.9"/>
	<path id="Path_1283" class="st2" d="M15,70.1C7.9,70.2,2.1,64.6,1.9,57.5c0-0.1,0-0.3,0-0.4V57c-0.1-7.1,5.6-12.9,12.7-13.1h0.5
		c4.7,0,7.7,1.6,10,4.2l-4.3,4.7c-1.4-1.7-3.5-2.8-5.7-2.8c-3.6,0-6.1,3.1-6.1,6.8V57c0,3.8,2.5,6.9,6.4,6.9c2.4,0,4-1,5.8-2.7
		l4.2,4.2C22.7,68.5,19,70.2,15,70.1"/>
	<path id="Path_1284" class="st2" d="M39.6,70.1c-7.8,0-13.5-5.8-13.5-13V57c0-7.2,5.8-13.1,13.6-13.1s13.5,5.8,13.5,13V57
		C53.3,64.2,47.4,70.1,39.6,70.1 M46.2,57c0.1-3.7-2.7-6.8-6.4-6.9h-0.2c-4.1,0-6.5,3.1-6.5,6.8V57c-0.1,3.7,2.7,6.8,6.4,6.9
		c0,0,0,0,0,0h0.2C43.8,63.9,46.3,60.8,46.2,57L46.2,57z"/>
	<path id="Path_1285" class="st2" d="M65,69.9c-4.4,0-7.3-1.7-7.3-7.5V50.5h-3v-6.1h3V38h7.1v6.4h5.9v6.1h-5.9v10.7
		c0,1.6,0.7,2.4,2.3,2.4c1.2,0,2.4-0.3,3.5-0.9v5.7C68.9,69.5,67,70,65,69.9"/>
	<path id="Path_1286" class="st2" d="M82.6,69.9c-4.4,0-7.3-1.7-7.3-7.5V50.5h-3v-6.1h3V38h7.1v6.4h5.9v6.1h-5.9v10.7
		c0,1.6,0.7,2.4,2.3,2.4c1.2,0,2.4-0.3,3.5-0.9v5.7C86.5,69.5,84.6,70,82.6,69.9"/>
	<path id="Path_1287" class="st2" d="M103.3,70.1c-7.8,0-13.5-5.8-13.5-13V57c0-7.2,5.8-13.1,13.6-13.1s13.5,5.8,13.5,13V57
		C116.9,64.2,111.1,70.1,103.3,70.1 M109.9,57c0.1-3.7-2.7-6.8-6.4-6.9h-0.2c-4.1,0-6.5,3.1-6.5,6.8V57c-0.2,3.7,2.7,6.8,6.4,6.9
		c0,0,0,0,0,0h0.2c4.1,0,6.5-3.1,6.5-6.8V57z"/>
	<path id="Path_1288" class="st2" d="M136.1,69.9V55.7c0-3.4-1.6-5.2-4.3-5.2s-4.5,1.8-4.5,5.2v14.2h-7.1V44.4h7.1V48
		c1.6-2.1,3.7-4.1,7.4-4.1c5.4,0,8.5,3.6,8.5,9.5V70L136.1,69.9z"/>
	<path id="Path_1289" class="st1" d="M42,0.9h98.2c1.6,0,2.9,1.3,2.9,2.9l0,0V32c0,1.6-1.3,2.9-2.9,2.9l0,0H42
		c-1.6,0-2.9-1.3-2.9-2.9l0,0V3.8C39.1,2.2,40.4,0.9,42,0.9L42,0.9"/>
	<path id="Path_1290" class="st0" d="M66.9,20.3H49.7c0.4,2.9,3.1,5.1,6,4.9c2.3,0,4.4-0.9,6-2.5l4,3.6c-2.5,3-6.2,4.7-10.1,4.6
		c-7.4,0-12.9-5.2-12.9-12.8v-0.1c0-7.1,5-12.9,12.2-12.9c8.2,0,12,6.4,12,13.4v0.1C67,19.2,67,19.7,66.9,20.3 M55,10.7
		c-2.9,0-4.8,2.1-5.3,5.3h10.6C59.8,12.8,57.9,10.7,55,10.7"/>
	<path id="Path_1291" class="st0" d="M85.8,30.2v-3.5c-1.6,2.1-3.7,4-7.2,4c-5.3,0-8.4-3.5-8.4-9.2v-16h7v13.8c0,3.3,1.6,5,4.2,5
		c2.7,0,4.4-1.7,4.4-5V5.5h7v24.7H85.8z"/>
	<path id="Path_1292" class="st0" d="M111,12.4c-4.7,0-7.5,2.8-7.5,8.7v9.1h-7V5.5h7v5c1.4-3.4,3.7-5.6,7.9-5.4v7.3L111,12.4z"/>
	<path id="Path_1293" class="st0" d="M126.1,30.8c-7.7,0-13.3-5.7-13.3-12.8v-0.1c0-7.1,5.7-12.9,13.4-12.9s13.3,5.7,13.3,12.8v0.1
		C139.5,25,133.8,30.8,126.1,30.8 M132.6,17.9c0.1-3.6-2.7-6.7-6.3-6.8h-0.2c-4,0-6.4,3.1-6.4,6.7v0.1c-0.1,3.6,2.7,6.7,6.3,6.8
		c0,0,0,0,0,0h0.2C130.2,24.7,132.6,21.7,132.6,17.9L132.6,17.9z"/>
	<path id="Path_1294" class="st0" d="M17.4,16.4H9.7c-2.6,0-4.6-2.1-4.6-4.6l0,0V4h7.8c2.6,0,4.6,2.1,4.6,4.6l0,0L17.4,16.4z"/>
	<path id="Path_1295" class="st0" d="M20.5,16.4V8.6C20.5,6,22.6,4,25.1,4h7.8v7.8c0,2.6-2.1,4.6-4.6,4.6c0,0,0,0-0.1,0H20.5z"/>
	<path id="Path_1296" class="st0" d="M20.5,19.4h7.8c2.6,0,4.6,2.1,4.6,4.6l0,0v7.8h-7.8c-2.6,0-4.6-2.1-4.6-4.6l0,0V19.4z"/>
	<path id="Path_1297" class="st0" d="M17.4,19.4v7.8c0,2.6-2.1,4.6-4.6,4.6H5v-7.8c0-2.6,2.1-4.6,4.6-4.6c0,0,0,0,0,0H17.4
		L17.4,19.4z"/>
</g>
</svg>
